<svg width="11" height="12" viewBox="0 0 11 12" fill="none" xmlns="http://www.w3.org/2000/svg">
<path d="M3.18087 2.43489C3.18075 2.6932 3.08405 2.94088 2.91206 3.12344C2.74006 3.30601 2.50686 3.4085 2.26374 3.40837C2.02063 3.40824 1.78752 3.3055 1.6157 3.12276C1.44387 2.94001 1.34741 2.69223 1.34753 2.43392C1.34766 2.17561 1.44435 1.92793 1.61634 1.74537C1.78834 1.56281 2.02154 1.46032 2.26466 1.46045C2.50777 1.46058 2.74088 1.56332 2.91271 1.74606C3.08453 1.9288 3.18099 2.17658 3.18087 2.43489ZM3.20837 4.12958H1.37503V10.2266H3.20837V4.12958ZM6.10503 4.12958H4.28087V10.2266H6.0867V7.02711C6.0867 5.24476 8.27295 5.07919 8.27295 7.02711V10.2266H10.0834V6.36482C10.0834 3.36015 6.84753 3.47216 6.0867 4.94771L6.10503 4.12958Z" fill="#F8F8F8"/>
</svg>
