<svg width="11" height="12" viewBox="0 0 11 12" fill="none" xmlns="http://www.w3.org/2000/svg">
<path d="M3.65833 1H7.50833C8.975 1 10.1667 2.26615 10.1667 3.82448V7.9151C10.1667 8.6642 9.88659 9.38262 9.38806 9.91231C8.88952 10.442 8.21337 10.7396 7.50833 10.7396H3.65833C2.19167 10.7396 1 9.47344 1 7.9151V3.82448C1 3.07538 1.28007 2.35696 1.77861 1.82727C2.27714 1.29758 2.9533 1 3.65833 1ZM3.56667 1.97396C3.12906 1.97396 2.70938 2.15866 2.39994 2.48744C2.09051 2.81621 1.91667 3.26213 1.91667 3.72708V8.0125C1.91667 8.98159 2.65458 9.76562 3.56667 9.76562H7.6C8.03761 9.76562 8.45729 9.58092 8.76673 9.25215C9.07616 8.92337 9.25 8.47746 9.25 8.0125V3.72708C9.25 2.75799 8.51208 1.97396 7.6 1.97396H3.56667ZM7.98958 2.70443C8.14153 2.70443 8.28725 2.76856 8.3947 2.88272C8.50214 2.99688 8.5625 3.15171 8.5625 3.31315C8.5625 3.47459 8.50214 3.62943 8.3947 3.74358C8.28725 3.85774 8.14153 3.92188 7.98958 3.92188C7.83764 3.92188 7.69191 3.85774 7.58447 3.74358C7.47703 3.62943 7.41667 3.47459 7.41667 3.31315C7.41667 3.15171 7.47703 2.99688 7.58447 2.88272C7.69191 2.76856 7.83764 2.70443 7.98958 2.70443ZM5.58333 3.4349C6.19112 3.4349 6.77402 3.69143 7.20379 4.14806C7.63356 4.60469 7.875 5.22402 7.875 5.86979C7.875 6.51557 7.63356 7.13489 7.20379 7.59152C6.77402 8.04815 6.19112 8.30469 5.58333 8.30469C4.97555 8.30469 4.39265 8.04815 3.96288 7.59152C3.53311 7.13489 3.29167 6.51557 3.29167 5.86979C3.29167 5.22402 3.53311 4.60469 3.96288 4.14806C4.39265 3.69143 4.97555 3.4349 5.58333 3.4349ZM5.58333 4.40885C5.21866 4.40885 4.86892 4.56277 4.61106 4.83675C4.3532 5.11073 4.20833 5.48233 4.20833 5.86979C4.20833 6.25726 4.3532 6.62885 4.61106 6.90283C4.86892 7.17681 5.21866 7.33073 5.58333 7.33073C5.94801 7.33073 6.29774 7.17681 6.55561 6.90283C6.81347 6.62885 6.95833 6.25726 6.95833 5.86979C6.95833 5.48233 6.81347 5.11073 6.55561 4.83675C6.29774 4.56277 5.94801 4.40885 5.58333 4.40885Z" fill="#F8F8F8"/>
</svg>
