<svg width="11" height="12" viewBox="0 0 11 12" fill="none" xmlns="http://www.w3.org/2000/svg">
<path d="M4.58335 7.30461L6.9621 5.84367L4.58335 4.38273V7.30461ZM9.88169 3.49156C9.94127 3.72044 9.98252 4.02724 10.01 4.41682C10.0421 4.8064 10.0559 5.14242 10.0559 5.43461L10.0834 5.84367C10.0834 6.91015 10.01 7.69419 9.88169 8.19578C9.7671 8.63406 9.50127 8.91651 9.08877 9.03825C8.87335 9.10156 8.47919 9.14539 7.87419 9.17461C7.27835 9.20869 6.73294 9.2233 6.22877 9.2233L5.50002 9.25252C3.5796 9.25252 2.38335 9.17461 1.91127 9.03825C1.49877 8.91651 1.23294 8.63406 1.11835 8.19578C1.05877 7.9669 1.01752 7.6601 0.99002 7.27052C0.957937 6.88093 0.944187 6.54492 0.944187 6.25273L0.916687 5.84367C0.916687 4.77718 0.99002 3.99315 1.11835 3.49156C1.23294 3.05328 1.49877 2.77083 1.91127 2.64909C2.12669 2.58578 2.52085 2.54195 3.12585 2.51273C3.72169 2.47864 4.2671 2.46403 4.77127 2.46403L5.50002 2.43481C7.42044 2.43481 8.61669 2.51273 9.08877 2.64909C9.50127 2.77083 9.7671 3.05328 9.88169 3.49156Z" fill="#F8F8F8"/>
</svg>
